<?xml version="1.0" encoding="utf-8"?>
<!-- Generator: Adobe Illustrator 19.1.0, SVG Export Plug-In . SVG Version: 6.00 Build 0)  -->
<svg version="1.1" id="Layer_1" xmlns="http://www.w3.org/2000/svg" xmlns:xlink="http://www.w3.org/1999/xlink" x="0px" y="0px"
	 width="146px" height="50px" viewBox="-546 326 146 50" style="enable-background:new -546 326 146 50;" xml:space="preserve">
<style type="text/css">
	.st0{fill:#8BC541;}
	.st1{fill:#F69220;}
	.st2{fill:#360D36;}
</style>
<g>
	<g>
		<g>
			<g>
				<path class="st0" d="M-532.3,326c-2.6,4.5-1.1,10.2,3.4,12.9C-526.3,334.4-527.8,328.6-532.3,326z"/>
				<path class="st0" d="M-527.5,338.6c3.5,0.1,6.4-2.6,6.6-6.1C-524.5,332.3-527.4,335.1-527.5,338.6z"/>
			</g>
			<g>
				<path class="st1" d="M-543.4,362.4c-0.3,0.3-0.6,0.5-1,0.4c-0.6-0.1-0.9-0.7-0.7-1.2c0.2-0.5,0.7-0.8,1.3-0.6
					c0.1,0,0.2,0.1,0.3,0.1l0,0C-543.3,361.5-543.2,362-543.4,362.4L-543.4,362.4z"/>
				<path class="st1" d="M-513,362C-513,361.9-512.9,361.9-513,362c0.3-0.3,0.7-0.5,1.1-0.4c0.5,0.2,0.8,0.7,0.6,1.2
					c-0.1,0.5-0.7,0.7-1.1,0.6c-0.5-0.1-0.8-0.6-0.6-1.1C-513,362.2-513,362.1-513,362z"/>
				<path class="st1" d="M-514.2,351.3c-0.3-0.3-0.6-0.6-0.4-1.1c0.1-0.5,0.6-0.8,1.2-0.6c0.5,0.1,0.8,0.7,0.6,1.2
					c-0.1,0.5-0.6,0.7-1.1,0.6C-514,351.4-514.1,351.3-514.2,351.3C-514.2,351.3-514.2,351.3-514.2,351.3z"/>
				<path class="st1" d="M-527.4,376c-0.5,0-0.9-0.4-0.9-0.9c0-0.5,0.4-0.9,0.9-0.9c0.5,0,0.9,0.4,0.9,0.9
					C-526.5,375.6-526.9,376-527.4,376z"/>
				<path class="st1" d="M-525.2,374.1L-525.2,374.1c0.2-0.1,0.3-0.3,0.5-0.3c0.4-0.1,0.8,0.1,1,0.4c0.2,0.3,0.1,0.8-0.2,1.1
					c-0.3,0.3-0.7,0.3-1.1,0.2c-0.4-0.2-0.5-0.6-0.4-1C-525.3,374.3-525.2,374.2-525.2,374.1z"/>
				<path class="st1" d="M-530.6,342c0,0.5-0.4,0.9-0.9,0.9c-0.5,0-0.9-0.4-0.9-0.9c0-0.5,0.4-0.9,0.9-0.9
					C-530.9,341.1-530.6,341.5-530.6,342z"/>
				<path class="st1" d="M-527.5,341.6c0,0.5-0.4,0.9-0.9,0.9c-0.5,0-0.9-0.4-0.9-0.9c0-0.5,0.4-0.9,0.9-0.9
					C-527.9,340.7-527.5,341.1-527.5,341.6z"/>
				<path class="st1" d="M-511.6,355.7c-0.5,0-0.9-0.4-0.9-0.9c0-0.5,0.4-0.9,0.9-0.9c0.5,0,0.9,0.4,0.9,1
					C-510.8,355.4-511.2,355.7-511.6,355.7z"/>
				<path class="st1" d="M-510.5,357.8c0,0.5-0.3,0.9-0.8,0.9c-0.5,0-0.9-0.3-0.9-0.8c0-0.5,0.3-0.9,0.9-1
					C-510.8,356.9-510.5,357.2-510.5,357.8z"/>
				<path class="st1" d="M-537.6,371.8c0,0.5-0.4,0.9-0.9,0.9c-0.4,0-0.9-0.5-0.9-0.9c0-0.5,0.4-0.9,0.9-0.9
					C-538,370.9-537.6,371.3-537.6,371.8z"/>
				<path class="st1" d="M-540.6,347.8c0,0.4-0.2,0.7-0.6,0.8c-0.4,0.1-0.7,0-0.9-0.2c-0.3-0.3-0.3-0.5,0-0.8
					c0.1-0.1,0.2-0.2,0.2-0.3c0.2-0.3,0.4-0.4,0.8-0.3C-540.8,347.2-540.6,347.5-540.6,347.8z"/>
				<path class="st1" d="M-543.9,364c0.5,0,0.9,0.4,0.9,0.9c0,0.5-0.4,0.9-0.9,0.9c0,0-0.1,0-0.1,0c-0.3,0-0.8-0.8-0.7-1.2
					C-544.7,364.3-544.3,364-543.9,364z"/>
				<path class="st1" d="M-539.3,370.5c0,0.4-0.3,0.8-0.7,0.8c-0.1,0-0.3,0-0.4-0.1c-0.2-0.2-0.4-0.4-0.6-0.6
					c-0.1-0.1-0.1-0.2-0.1-0.3c0-0.4,0.5-0.8,0.9-0.7C-539.7,369.7-539.3,370.1-539.3,370.5z"/>
				<path class="st1" d="M-545.7,356.1c0-0.8,0.3-1.2,0.7-1.1c0.5,0,0.8,0.5,0.8,0.9c0,0.5-0.4,0.9-0.9,0.8
					C-545.4,356.7-545.7,356.4-545.7,356.1z"/>
				<path class="st1" d="M-536,373.3c-0.1,0.1-0.2,0.3-0.4,0.5c-0.1,0.1-0.3,0.1-0.4,0c-0.3-0.3-0.9-0.3-0.9-0.8
					c0-0.4,0.4-0.8,0.9-0.8C-536.3,372.3-535.9,372.7-536,373.3z"/>
				<path class="st1" d="M-541.9,349.5c0,0.7-0.7,1.1-1.3,0.7c-0.4-0.2-0.4-0.5-0.2-0.8c0.1-0.1,0.1-0.2,0.2-0.4
					c0.2-0.2,0.3-0.6,0.7-0.4C-542.1,348.8-541.8,349.1-541.9,349.5z"/>
				<path class="st1" d="M-530.4,374.6c0.5,0,0.9,0.4,0.9,0.9c0,0.4-0.2,0.6-0.7,0.5c-0.2,0-0.4,0-0.6-0.1c-0.5-0.1-0.6-0.3-0.5-0.7
					C-531.1,374.8-530.8,374.6-530.4,374.6z"/>
				<path class="st1" d="M-540.2,346.9c-0.1-0.1-0.3-0.2-0.5-0.4c-0.2-0.2-0.2-0.4,0-0.6c0.1-0.1,0.3-0.3,0.4-0.4
					c0.2-0.2,0.3-0.4,0.6-0.3c0.3,0.2,0.5,0.4,0.5,0.8C-539.2,346.5-539.6,347-540.2,346.9z"/>
				<path class="st1" d="M-522.2,374.3c0-0.3,0.2-0.6,0.5-0.7c0.3-0.2,0.6-0.1,0.9,0.1c0.4,0.3,0.4,0.7-0.1,1
					c-0.2,0.1-0.3,0.1-0.5,0.2C-522,375-522.2,374.8-522.2,374.3z"/>
				<path class="st1" d="M-515.3,369c0-0.6,0.5-1,1.1-0.9c0.5,0.1,0.6,0.4,0.3,0.8c-0.1,0.2-0.2,0.3-0.3,0.5
					c-0.1,0.1-0.3,0.3-0.4,0.3c-0.2-0.1-0.4-0.3-0.5-0.5C-515.3,369.2-515.3,369-515.3,369z"/>
				<path class="st1" d="M-533.6,342.4c0,0.4-0.3,0.7-0.7,0.8c-0.4,0.1-0.8-0.1-0.9-0.5c-0.1-0.3-0.1-0.5,0.2-0.6
					c0.2-0.1,0.4-0.2,0.6-0.2C-533.9,341.7-533.6,341.9-533.6,342.4z"/>
				<path class="st1" d="M-517.3,345.7c-0.7,0-1.1-0.6-0.8-1.2c0.2-0.4,0.4-0.4,0.7-0.2c0.2,0.1,0.4,0.3,0.6,0.5
					c0.4,0.3,0.3,0.6-0.1,0.8C-517.1,345.7-517.3,345.7-517.3,345.7z"/>
				<path class="st1" d="M-516.6,370.6c0-0.4,0.2-0.7,0.5-0.8c0.3-0.1,0.6-0.1,0.9,0.2c0.2,0.2,0.2,0.3,0,0.5
					c-0.2,0.2-0.4,0.4-0.6,0.6c-0.1,0.1-0.3,0.3-0.4,0.2c-0.2-0.1-0.3-0.3-0.4-0.5C-516.6,370.8-516.6,370.7-516.6,370.6z"/>
				<path class="st1" d="M-514.1,367.1c0.2-0.2,0.3-0.5,0.5-0.6c0.2-0.1,0.6-0.1,0.8,0c0.2,0,0.3,0.2,0.1,0.4
					c-0.2,0.3-0.3,0.5-0.5,0.8c-0.2,0.3-0.4,0.4-0.7,0.1C-513.9,367.6-513.9,367.4-514.1,367.1z"/>
				<path class="st1" d="M-525.5,342.1c-0.4,0-0.7-0.2-0.8-0.5c-0.1-0.5,0-0.7,0.5-0.6c0.2,0,0.5,0.1,0.7,0.1
					c0.4,0.1,0.5,0.3,0.3,0.6C-524.9,341.9-525.1,342.1-525.5,342.1z"/>
				<path class="st1" d="M-511.7,360.8c0-0.3,0.1-0.6,0.4-0.7c0.2-0.1,0.4-0.1,0.6,0c0.1,0,0.1,0.3,0.1,0.5c0,0.3-0.1,0.5-0.1,0.8
					c0,0.3-0.2,0.3-0.5,0.3C-511.5,361.5-511.7,361.2-511.7,360.8z"/>
				<path class="st1" d="M-541,369.3c0,0,0,0.2-0.1,0.3c-0.2,0.3-0.4,0.4-0.6,0.1c-0.2-0.2-0.4-0.5-0.6-0.7
					c-0.2-0.2-0.1-0.4,0.1-0.4c0.3-0.1,0.6-0.1,0.8,0C-541.1,368.6-541,368.9-541,369.3z"/>
				<path class="st1" d="M-534.3,374.5c0,0.4-0.1,0.5-0.5,0.3c-0.3-0.1-0.5-0.3-0.8-0.4c-0.3-0.1-0.3-0.3-0.1-0.5
					c0.2-0.3,0.6-0.4,0.9-0.3C-534.5,373.8-534.3,374.1-534.3,374.5z"/>
				<path class="st1" d="M-519,344.3c-0.7,0-1.1-0.6-0.8-1.1c0.1-0.2,0.2-0.3,0.4-0.1c0.3,0.2,0.5,0.3,0.8,0.5
					c0.4,0.3,0.4,0.5-0.1,0.7C-518.8,344.3-518.9,344.3-519,344.3z"/>
				<path class="st1" d="M-515.7,347c-0.3,0-0.6-0.2-0.7-0.5c-0.1-0.3,0-0.6,0.1-0.8c0.1-0.2,0.3-0.2,0.4,0c0.2,0.2,0.4,0.4,0.6,0.6
					c0.1,0.1,0.2,0.3,0.2,0.4c-0.1,0.1-0.3,0.2-0.4,0.3C-515.6,347-515.7,347-515.7,347z"/>
				<path class="st1" d="M-511.9,352.6c-0.4,0-0.7-0.2-0.8-0.5c-0.1-0.3,0-0.7,0.3-0.9c0.2-0.1,0.3-0.2,0.4,0.1
					c0.1,0.3,0.3,0.6,0.4,0.9C-511.5,352.5-511.6,352.6-511.9,352.6z"/>
				<path class="st1" d="M-543.3,351c0,0.5-0.2,0.8-0.5,0.9c-0.2,0.1-0.4,0-0.6,0c0-0.2,0-0.3,0.1-0.5c0.1-0.2,0.2-0.4,0.3-0.6
					c0.2-0.3,0.3-0.4,0.6-0.1C-543.4,350.8-543.3,351-543.3,351z"/>
				<path class="st1" d="M-538.2,343.9c0.3,0.4,0.3,0.8,0,1.1c-0.3,0.3-0.7,0.3-1,0.1c-0.2-0.1-0.2-0.2,0-0.4
					C-538.9,344.4-538.6,344.2-538.2,343.9z"/>
				<path class="st1" d="M-517.7,372.7c-0.3-0.4-0.3-0.7,0-1c0.2-0.2,0.5-0.3,0.9-0.2c0.2,0.1,0.3,0.2,0.1,0.4
					C-517,372.2-517.3,372.4-517.7,372.7z"/>
				<path class="st1" d="M-520.2,342.6c-0.3,0.3-0.5,0.4-0.8,0.3c-0.3-0.1-0.5-0.4-0.5-0.7c0,0,0.1-0.2,0.2-0.1
					C-521,342.3-520.6,342.4-520.2,342.6z"/>
				<path class="st1" d="M-514.6,347c0.3,0.4,0.6,0.7,0.9,1.1c-0.4,0.3-0.6,0.1-0.9-0.1C-514.9,347.8-514.9,347.5-514.6,347z"/>
				<path class="st1" d="M-512.2,366.1c-0.3-0.3-0.4-0.5-0.3-0.8c0.1-0.4,0.4-0.5,0.9-0.6C-511.8,365.2-512,365.7-512.2,366.1z"/>
				<path class="st1" d="M-545.8,359.9c0.6,0.3,0.7,0.8,0.2,1.3C-545.7,360.7-545.7,360.3-545.8,359.9z"/>
				<path class="st1" d="M-525.3,375.9c-0.3,0-0.6,0.1-0.9,0.1c0-0.1,0-0.1-0.1-0.2c0.2-0.1,0.3-0.2,0.5-0.2c0.2,0,0.3,0.1,0.5,0.1
					C-525.3,375.8-525.3,375.8-525.3,375.9z"/>
				<path class="st1" d="M-543.5,367.3c0.5,0.1,0.7,0.3,0.6,0.9C-543.1,367.8-543.3,367.5-543.5,367.3z"/>
				<path class="st1" d="M-545.1,353.5c0.1-0.3,0.2-0.6,0.3-1C-544.6,353-544.6,353.3-545.1,353.5z"/>
				<path class="st1" d="M-533,375.5c-0.2-0.1-0.4-0.1-0.6-0.2c0-0.1,0-0.1,0-0.2c0.2,0.1,0.4,0.1,0.7,0.2
					C-532.9,375.3-532.9,375.4-533,375.5z"/>
				<path class="st1" d="M-545,363.7c0-0.2-0.1-0.4-0.1-0.5c0,0,0.1,0,0.1,0c0.1,0.2,0.1,0.4,0.2,0.5
					C-544.9,363.7-545,363.7-545,363.7z"/>
				<path class="st1" d="M-517.4,351.7c0.4,0.4,0.5,0.8,0.3,1.4c-0.3,0.2-0.5,0.5-0.9,0.4c-0.6-0.1-1-0.6-0.9-1.1
					c0.1-0.6,0.6-0.9,1.2-0.8C-517.6,351.7-517.5,351.7-517.4,351.7z"/>
				<path class="st1" d="M-539,354.3c0.5,0,0.9,0.4,0.9,0.9c0,0.5-0.4,0.9-0.9,0.9c-0.5,0-0.9-0.4-0.9-0.9
					C-539.9,354.7-539.5,354.3-539,354.3z"/>
				<path class="st1" d="M-531.2,368.5c0.5,0,0.9,0.4,0.9,0.9c0,0.5-0.4,0.9-0.9,0.9c-0.5,0-0.9-0.4-0.9-0.9
					C-532,368.9-531.6,368.5-531.2,368.5z"/>
				<path class="st1" d="M-537,364.2c0,0.5-0.4,0.9-0.9,0.9c-0.5,0-0.9-0.4-0.9-0.9c0-0.5,0.4-0.9,0.9-0.9
					C-537.4,363.3-537,363.7-537,364.2z"/>
				<path class="st1" d="M-518.8,351.2c0,0.5-0.4,0.9-0.9,0.8c-0.5,0-0.9-0.4-0.8-0.9c0-0.5,0.4-0.9,0.9-0.8
					C-519.1,350.4-518.8,350.7-518.8,351.2z"/>
				<path class="st1" d="M-523,349.4c-0.5,0-0.9-0.4-0.9-0.8c0-0.5,0.4-0.9,0.9-0.9c0.5,0,0.8,0.4,0.8,0.8
					C-522.2,349-522.6,349.4-523,349.4z"/>
				<path class="st1" d="M-520,366.7c0,0.5-0.4,0.8-0.9,0.8c-0.5,0-0.8-0.4-0.8-0.9c0-0.5,0.4-0.8,0.9-0.8
					C-520.4,365.8-520,366.2-520,366.7z"/>
				<path class="st1" d="M-517.4,363.3c0,0.5-0.4,0.8-0.8,0.8c-0.5,0-0.9-0.4-0.9-0.9c0-0.5,0.4-0.8,0.8-0.8
					C-517.7,362.4-517.4,362.8-517.4,363.3z"/>
				<path class="st1" d="M-516.8,355.5c0,0.5-0.4,0.8-0.8,0.8c-0.5,0-0.8-0.4-0.8-0.8c0-0.4,0.4-0.8,0.8-0.8
					C-517.2,354.7-516.8,355.1-516.8,355.5z"/>
				<path class="st1" d="M-534.3,350.1c0,0.4-0.4,0.8-0.8,0.8c-0.5,0-0.8-0.4-0.8-0.8c0-0.4,0.4-0.8,0.8-0.8
					C-534.6,349.3-534.3,349.6-534.3,350.1z"/>
				<path class="st1" d="M-521.3,350.8c-0.5,0-0.8-0.4-0.8-0.8c0-0.4,0.4-0.8,0.8-0.8c0.5,0,0.8,0.4,0.8,0.8
					C-520.5,350.4-520.9,350.8-521.3,350.8z"/>
				<path class="st1" d="M-516.4,358.6c0,0.5-0.4,0.8-0.8,0.8c-0.4,0-0.8-0.4-0.8-0.8c0-0.5,0.4-0.8,0.8-0.8
					C-516.8,357.7-516.4,358.1-516.4,358.6z"/>
				<path class="st1" d="M-518.7,364.9c0,0.4-0.4,0.8-0.8,0.8c-0.4,0-0.8-0.4-0.8-0.8c0-0.4,0.4-0.8,0.8-0.8
					C-519.1,364.1-518.7,364.5-518.7,364.9z"/>
				<path class="st1" d="M-536.9,353.4c0,0.4-0.4,0.8-0.8,0.8c-0.4,0-0.8-0.4-0.8-0.8c0-0.4,0.4-0.8,0.8-0.8
					C-537.2,352.6-536.9,353-536.9,353.4z"/>
				<path class="st1" d="M-527.7,348.5c-0.4,0-0.8-0.4-0.8-0.8c0-0.4,0.4-0.8,0.8-0.8c0.4,0,0.8,0.4,0.8,0.8
					C-526.9,348.1-527.3,348.5-527.7,348.5z"/>
				<circle class="st1" cx="-536.2" cy="365.5" r="0.8"/>
				<path class="st1" d="M-532,368.1c0,0.4-0.4,0.8-0.8,0.8c-0.4,0-0.8-0.4-0.8-0.8c0-0.4,0.4-0.8,0.8-0.8
					C-532.4,367.3-532,367.7-532,368.1z"/>
				<path class="st1" d="M-534.5,366.1c0.4,0,0.7,0.4,0.7,0.8c0,0.4-0.4,0.7-0.8,0.7c-0.4,0-0.7-0.4-0.7-0.8
					C-535.3,366.4-535,366-534.5,366.1z"/>
				<path class="st1" d="M-524.4,368.7c0,0.4-0.3,0.8-0.8,0.8c-0.4,0-0.8-0.3-0.8-0.8c0-0.4,0.3-0.8,0.8-0.8
					C-524.7,367.9-524.4,368.3-524.4,368.7z"/>
				<path class="st1" d="M-527.3,369.1c0,0.4-0.4,0.8-0.8,0.8c-0.4,0-0.8-0.4-0.7-0.8c0-0.4,0.4-0.8,0.8-0.8
					C-527.7,368.3-527.3,368.7-527.3,369.1z"/>
				<path class="st1" d="M-529.9,348c0,0.4-0.3,0.8-0.8,0.8c-0.4,0-0.8-0.3-0.8-0.8c0-0.4,0.3-0.8,0.8-0.8
					C-530.3,347.2-529.9,347.6-529.9,348z"/>
				<path class="st1" d="M-536.4,352.5c-0.4,0-0.8-0.3-0.8-0.7c0-0.5,0.3-0.8,0.8-0.8c0.4,0,0.8,0.3,0.8,0.8
					C-535.6,352.2-535.9,352.5-536.4,352.5z"/>
				<path class="st1" d="M-538.6,358.9c-0.4,0-0.8-0.3-0.8-0.8c0-0.4,0.3-0.7,0.8-0.7c0.4,0,0.8,0.3,0.8,0.8
					C-537.9,358.5-538.2,358.9-538.6,358.9z"/>
				<path class="st1" d="M-538.3,361.9c-0.4,0-0.8-0.4-0.8-0.8c0-0.4,0.4-0.7,0.8-0.7c0.4,0,0.8,0.4,0.8,0.8
					C-537.5,361.6-537.9,361.9-538.3,361.9z"/>
				<path class="st1" d="M-518.6,360.8c-0.3,0-0.6-0.3-0.6-0.6c0-0.3,0.3-0.6,0.6-0.6c0.3,0,0.6,0.3,0.6,0.6
					C-518,360.6-518.2,360.8-518.6,360.8z"/>
				<path class="st1" d="M-526,349.6c-0.3,0-0.6-0.3-0.6-0.6c0-0.3,0.3-0.6,0.6-0.6c0.3,0,0.6,0.3,0.6,0.6
					C-525.4,349.3-525.7,349.6-526,349.6z"/>
				<path class="st1" d="M-518.6,354.2c0,0.4-0.3,0.6-0.6,0.6c-0.4,0-0.6-0.3-0.6-0.6c0-0.3,0.3-0.6,0.6-0.6
					C-518.9,353.6-518.7,353.9-518.6,354.2z"/>
				<path class="st1" d="M-523.8,366.4c0.3,0,0.6,0.3,0.6,0.6c0,0.3-0.3,0.6-0.6,0.6c-0.3,0-0.6-0.3-0.6-0.6
					C-524.4,366.7-524.1,366.4-523.8,366.4z"/>
				<path class="st1" d="M-532.1,350.3c-0.3,0-0.6-0.3-0.5-0.6c0-0.3,0.3-0.6,0.6-0.5c0.3,0,0.5,0.3,0.5,0.6
					C-531.5,350-531.8,350.3-532.1,350.3z"/>
				<path class="st1" d="M-529.9,368.3c-0.3,0-0.5-0.2-0.5-0.5c0-0.3,0.2-0.6,0.5-0.6c0.3,0,0.6,0.2,0.5,0.5
					C-529.3,368-529.6,368.3-529.9,368.3z"/>
				<path class="st1" d="M-536.1,362.4c0,0.3-0.2,0.5-0.5,0.5c-0.3,0-0.5-0.2-0.5-0.5c0-0.3,0.2-0.5,0.5-0.5
					C-536.3,361.9-536.1,362.1-536.1,362.4z"/>
				<path class="st1" d="M-518.9,357.8c-0.3,0-0.5-0.3-0.5-0.5c0-0.3,0.3-0.5,0.5-0.5c0.3,0,0.5,0.3,0.5,0.5
					C-518.4,357.6-518.6,357.8-518.9,357.8z"/>
				<path class="st1" d="M-536.8,356.4c0,0.3-0.2,0.5-0.5,0.5c-0.3,0-0.5-0.3-0.5-0.5c0-0.3,0.2-0.5,0.5-0.5
					C-537,355.9-536.8,356.2-536.8,356.4z"/>
				<path class="st1" d="M-529,349.8c-0.3,0-0.5-0.2-0.5-0.5c0-0.3,0.2-0.5,0.5-0.5c0.3,0,0.4,0.2,0.5,0.4
					C-528.6,349.6-528.7,349.8-529,349.8z"/>
				<path class="st1" d="M-519.7,362.4c-0.4-0.1-0.6-0.2-0.6-0.5c0-0.3,0.2-0.4,0.4-0.4c0.3,0,0.5,0.2,0.4,0.5
					C-519.5,362.2-519.7,362.3-519.7,362.4z"/>
				<path class="st1" d="M-526.4,367.3c0,0.3-0.2,0.5-0.5,0.5c-0.3,0-0.5-0.2-0.4-0.5c0-0.3,0.2-0.4,0.4-0.4
					C-526.6,366.9-526.4,367.1-526.4,367.3z"/>
				<path class="st1" d="M-524.3,349.8c0.1,0.2,0.3,0.3,0.3,0.5c0.1,0.2-0.2,0.5-0.4,0.4c-0.3,0-0.5-0.2-0.4-0.4
					c0-0.2,0.2-0.3,0.3-0.5C-524.4,349.8-524.3,349.8-524.3,349.8z"/>
				<path class="st1" d="M-520.5,352.9c0,0.3-0.2,0.5-0.5,0.5c-0.3,0-0.4-0.2-0.4-0.5c0-0.3,0.2-0.4,0.4-0.4
					C-520.7,352.4-520.6,352.6-520.5,352.9z"/>
				<path class="st1" d="M-522,365.4c-0.2,0.1-0.3,0.3-0.5,0.3c-0.1,0-0.4-0.2-0.4-0.4c0-0.3,0.2-0.4,0.4-0.4c0.2,0,0.3,0.2,0.5,0.3
					C-522,365.3-522,365.3-522,365.4z"/>
				<path class="st1" d="M-536.9,359c0.1,0.2,0.3,0.3,0.3,0.5c0,0.3-0.2,0.5-0.4,0.4c-0.2,0-0.4-0.3-0.4-0.4c0-0.2,0.2-0.3,0.3-0.5
					C-537,359-537,359-536.9,359z"/>
				<path class="st1" d="M-532.9,351.5c-0.1,0.1-0.3,0.3-0.4,0.3c-0.2,0-0.4-0.1-0.4-0.4c0-0.3,0.2-0.4,0.4-0.4
					c0.2,0,0.3,0.2,0.4,0.3C-532.9,351.4-532.9,351.4-532.9,351.5z"/>
				<path class="st1" d="M-522.2,351.7c-0.1,0.1-0.3,0.3-0.4,0.3c-0.2,0-0.4-0.1-0.4-0.4c0-0.1,0.2-0.3,0.4-0.3
					c0.1,0,0.3,0.2,0.4,0.3C-522.2,351.6-522.2,351.6-522.2,351.7z"/>
				<path class="st1" d="M-535.6,354.9c-0.1,0.1-0.3,0.3-0.4,0.3c-0.1,0-0.3-0.2-0.3-0.4c0-0.1,0.2-0.3,0.3-0.3
					c0.1,0,0.3,0.2,0.4,0.3C-535.6,354.7-535.6,354.8-535.6,354.9z"/>
				<path class="st1" d="M-531.1,366.5c-0.1,0.1-0.3,0.3-0.4,0.3c-0.1,0-0.3-0.2-0.4-0.4c0.1-0.1,0.2-0.3,0.4-0.3
					c0.1,0,0.3,0.2,0.4,0.3C-531.1,366.4-531.1,366.5-531.1,366.5z"/>
				<path class="st1" d="M-520.7,363.7c-0.1,0.1-0.3,0.3-0.4,0.3c-0.1,0-0.4-0.2-0.3-0.4c0-0.1,0.2-0.3,0.4-0.3
					c0.1,0,0.3,0.2,0.4,0.3C-520.7,363.6-520.7,363.7-520.7,363.7z"/>
				<path class="st1" d="M-534.3,363.8c-0.3,0.2-0.4,0.3-0.5,0.3c-0.1,0-0.2-0.2-0.4-0.3c0.1-0.1,0.2-0.3,0.4-0.3
					C-534.7,363.4-534.6,363.6-534.3,363.8z"/>
				<path class="st1" d="M-534.2,353c-0.2,0.2-0.4,0.3-0.5,0.3c-0.1,0-0.3-0.2-0.3-0.3c0-0.1,0.2-0.3,0.3-0.3
					C-534.6,352.7-534.5,352.9-534.2,353z"/>
				<path class="st1" d="M-533.2,364.6c0.1,0.2,0.3,0.3,0.3,0.4c0,0.1-0.2,0.3-0.3,0.3c-0.1,0-0.3-0.2-0.3-0.3
					C-533.5,365-533.3,364.8-533.2,364.6z"/>
				<path class="st1" d="M-543.6,361.1c-0.6-0.7-0.6-0.8-0.4-1.5c-0.1,0.1-0.2,0.1-0.3,0.1c-0.4,0.1-0.8,0-1-0.3
					c-0.2-0.3-0.2-0.8,0-1.1c0.2-0.3,0.6-0.5,1-0.4c0.1,0,0.2,0.1,0.2,0.1c0.4,0.3,0.5,0.8,0.4,1.2c0.3-0.1,0.7-0.2,1-0.3
					c0-0.2-0.1-0.5-0.1-0.7c-0.5-0.1-0.9-0.2-1.3-0.2c0-0.1,0-0.1,0-0.2c-0.3-0.4-0.3-0.8-0.1-1.2c0.2-0.4,0.6-0.6,1.1-0.5
					c0,0,0.1,0,0.1,0c0-0.4-0.1-0.8-0.1-1.1c-0.2,0-0.5,0.1-0.7,0.1c-0.2,0-0.5-0.2-0.6-0.4c-0.3-0.3-0.2-0.8,0.1-1.2
					c0.3-0.3,0.7-0.4,1.1-0.3c0.5,0.2,0.7,0.6,0.6,1.2c0.3-0.1,0.6-0.2,1-0.3c0-0.2,0-0.5-0.1-0.7c-0.6,0.2-1.1,0.1-1.4-0.4
					c-0.2-0.4-0.2-0.8,0-1.1c0.3-0.5,0.8-0.6,1.3-0.4c-0.3-0.5-0.3-0.9,0-1.4c0.3-0.4,0.7-0.5,1.3-0.4c-0.2-0.5-0.2-0.9,0.1-1.3
					c0.3-0.4,0.7-0.5,1.2-0.4c-0.1-0.5-0.2-0.9,0.1-1.3c0.3-0.4,0.7-0.4,1.2-0.4c-0.2-0.5-0.3-1,0.1-1.3c0.2-0.2,0.5-0.3,0.8-0.3
					c0.7,0,1.1,0.5,1,1.3c0.3-0.1,0.6-0.1,0.9-0.2c0-0.3,0-0.7,0-1c-0.7,0.2-1.1,0.1-1.4-0.4c-0.2-0.4-0.2-0.8,0.1-1.1
					c0.3-0.3,0.7-0.4,1.1-0.2c0.4,0.2,0.6,0.6,0.5,1.3c0.2-0.1,0.3-0.1,0.5-0.2c0.2,0,0.4,0,0.6,0c-0.2-0.6-0.2-1.1,0.3-1.5
					c0.4-0.2,0.7-0.2,1.1,0c0.5,0.3,0.6,0.8,0.4,1.2c0.3-0.1,0.7-0.1,1-0.2c-0.2-0.8,0.2-1.4,0.8-1.5c0.8-0.1,1.2,0.4,1.3,1.3
					c0.3,0,0.6-0.1,1-0.1c-0.1-0.4-0.2-0.9,0.2-1.2c0.2-0.2,0.5-0.3,0.7-0.3c0.6-0.1,1.1,0.4,1.1,1.3c0.2,0,0.4-0.1,0.6-0.1
					c0.2,0,0.4,0.1,0.6,0.1c-0.2-0.7-0.2-1.1,0.3-1.4c0.3-0.2,0.8-0.2,1.1,0c0.3,0.3,0.4,0.7,0.3,1.1c-0.2,0.5-0.5,0.6-1.3,0.6
					c0.1,0.3,0.2,0.7,0.2,1c0.3,0,0.6,0,1,0c-0.3-0.5-0.3-1,0.2-1.4c0.3-0.3,0.8-0.3,1.2,0c0.5,0.3,0.5,0.8,0.4,1.4
					c0.5-0.3,0.9-0.4,1.3-0.1c0.4,0.3,0.5,0.7,0.5,1.3c0.5-0.2,1-0.2,1.4,0.2c0.4,0.4,0.4,0.9,0.1,1.4c0.5-0.4,0.9-0.5,1.4-0.2
					c0.5,0.3,0.6,0.8,0.4,1.3c0.6-0.3,1.1-0.3,1.5,0.2c0.3,0.3,0.3,0.7,0.1,1.1c-0.2,0.5-0.6,0.6-1.1,0.6c0,0.3,0.1,0.6,0.1,1
					c0.4-0.2,0.8,0,1.3,0.2l0,0c0.2,0.4,0.4,0.8,0.3,1.3c0.5-0.2,0.9-0.2,1.2,0.1c0.2,0.2,0.3,0.5,0.4,0.7c0.1,0.6-0.4,1-1.2,1.1
					c0,0.3,0.1,0.6,0.1,1c0.4-0.1,0.8-0.2,1.1,0.2c0.2,0.2,0.3,0.4,0.4,0.7c0.1,0.7-0.3,1.1-1.2,1.2c0,0.3,0,0.7,0.1,1
					c0.5-0.2,1-0.1,1.3,0.3c0.3,0.3,0.3,0.7,0.1,1.1c-0.3,0.5-0.7,0.6-1.3,0.5c0.3,0.5,0.2,0.9,0,1.4c0,0,0,0-0.1,0
					c-0.3,0.2-0.7,0.3-1.1,0.5c0,0.2,0,0.5,0,0.8c0.5-0.2,1-0.2,1.4,0.3c0.2,0.4,0.3,0.7,0,1.1c-0.3,0.5-0.7,0.6-1.3,0.4
					c0.2,0.5,0.3,0.9,0,1.3c-0.3,0.4-0.8,0.5-1.3,0.4c0.2,0.5,0.3,0.9,0,1.3c-0.3,0.4-0.7,0.5-1.2,0.4c0.2,0.5,0.2,0.9-0.1,1.3
					c-0.4,0.4-0.8,0.4-1.3,0.3c0.3,0.5,0.4,1.1-0.1,1.5c-0.3,0.3-0.8,0.4-1.2,0.2c-0.4-0.2-0.6-0.6-0.5-1.3
					c-0.3,0.1-0.6,0.1-0.9,0.2c0,0.3,0,0.6,0.1,1c0.7-0.2,1.1-0.1,1.3,0.3c0.2,0.4,0.2,0.8-0.1,1.1c-0.3,0.3-0.7,0.4-1.1,0.3
					c-0.4-0.2-0.6-0.6-0.5-1.1c-0.4,0.1-0.7,0.1-1.1,0.2c0.2,0.5,0.1,1-0.3,1.3c-0.3,0.3-0.7,0.3-1.1,0.1c-0.5-0.3-0.6-0.7-0.6-1.2
					c-0.3,0-0.6,0.1-1,0.1c0.2,0.4,0.1,0.9-0.1,1.3l0,0c-0.2,0.1-0.4,0.2-0.6,0.3c-0.7,0.2-1.4-0.3-1.4-1.1c0-0.1,0-0.2,0-0.2
					c-0.3,0-0.7,0.1-1,0.1c0.2,0.5,0.2,0.9-0.2,1.3c-0.3,0.3-0.7,0.4-1.1,0.2c-0.5-0.2-0.7-0.7-0.6-1.2c-0.4,0-0.8,0-1.1,0.1
					c0.2,0.6,0.1,1-0.3,1.3c-0.3,0.2-0.8,0.2-1.1,0c-0.4-0.3-0.5-0.7-0.3-1.3c-0.4,0.3-0.9,0.5-1.3,0.2c-0.5-0.3-0.6-0.7-0.5-1.2
					c-0.5,0.2-0.9,0.2-1.3-0.1c-0.4-0.3-0.5-0.7-0.4-1.2c-1.2,0.2-1.8-0.2-1.7-1.4c-0.5,0.2-0.9,0.2-1.3-0.1
					c-0.4-0.3-0.5-0.8-0.4-1.3c-0.5,0.2-0.9,0.2-1.3-0.1c-0.4-0.4-0.4-0.8-0.2-1.3c-0.5,0.3-1,0.4-1.4,0c-0.3-0.3-0.4-0.6-0.2-1
					c0.2-0.6,0.6-0.7,1.2-0.7c0-0.4-0.1-0.7-0.1-1c0,0,0,0-0.1,0c-0.5,0.1-0.9,0.1-1.2-0.3c-0.3-0.4-0.3-0.9-0.1-1.3
					c0,0,0-0.1,0.1-0.1l0,0c0.3-0.1,0.7-0.3,1.1-0.4c0-0.2-0.1-0.5-0.1-0.7C-542.9,361.2-543.2,361.2-543.6,361.1L-543.6,361.1z
					 M-517.1,353.1c0.4-0.1,0.8-0.3,1.1-0.4c0-0.2-0.1-0.5-0.1-0.8c-0.5,0.2-0.9,0-1.3-0.2c-0.1-0.4-0.3-0.8-0.4-1.2
					c-1,0.3-1.6-0.2-1.6-1.4c-1,0.3-1.5-0.1-1.7-1.2c-1,0.2-1.6-0.2-1.7-1.2c-0.4,0-0.7,0-1.1,0c0.2,0.6,0.2,1-0.2,1.3
					c-0.3,0.2-0.8,0.3-1.1,0c-0.4-0.2-0.5-0.7-0.4-1.1c0.2-0.4,0.5-0.6,1.2-0.6c-0.1-0.3-0.1-0.7-0.2-1c-0.2,0-0.5,0-0.7,0.1
					c0.1,0.9-0.2,1.5-0.8,1.6c-0.7,0.1-1.1-0.3-1.2-1.3c-0.3,0-0.7,0.1-1,0.1c0.2,0.5,0.1,0.9-0.2,1.2c-0.3,0.3-0.7,0.3-1.1,0.2
					c-0.5-0.2-0.6-0.7-0.6-1.1c-0.4,0-0.7,0.1-1.1,0.1c0.2,0.8,0,1.4-0.7,1.5c-0.2,0.1-0.6,0-0.8-0.1c-0.5-0.2-0.6-0.7-0.5-1.1
					c-0.3,0-0.5,0.1-0.8,0.1c0,0.3,0,0.7,0,1c0.6-0.2,1-0.2,1.3,0.2c0.3,0.3,0.3,0.8,0,1.1c-0.2,0.3-0.7,0.5-1.1,0.3
					c-0.2-0.1-0.4-0.3-0.5-0.5c-0.1-0.2,0-0.5-0.1-0.6c-0.3,0.1-0.7,0.2-1.1,0.2c0.2,0.4,0.1,0.8-0.2,1.2c-0.3,0.4-0.8,0.4-1.3,0.3
					c0.3,0.5,0.3,0.9,0,1.4c-0.3,0.4-0.8,0.4-1.3,0.3c0.2,0.4,0.3,0.9,0,1.3c-0.3,0.4-0.7,0.5-1.1,0.5c0.2,1.1-0.1,1.6-1.2,1.7
					c0,0.3,0,0.6,0,1c0.5-0.2,1-0.2,1.3,0.2c0.3,0.3,0.3,0.7,0.2,1.1c-0.3,0.6-0.7,0.7-1.2,0.6c0,0.4,0,0.9,0,1.3
					c0.5-0.3,0.9-0.3,1.3,0c0.3,0.3,0.4,0.7,0.2,1.1c-0.1,0.2-0.3,0.4-0.6,0.5c-0.2,0.1-0.5,0.1-0.7,0.1c0.1,0.4,0.1,0.7,0.2,1.1
					c0.6-0.2,1-0.2,1.3,0.2c0.3,0.3,0.3,0.8,0.1,1.2c-0.2,0.4-0.6,0.6-1.3,0.5c0.1,0.3,0.2,0.6,0.3,1c1-0.2,1.5,0.2,1.6,1.4
					c1.1-0.4,1.8,0.2,1.6,1.4c0.9-0.4,1.8,0,1.7,1.3c0.4-0.2,0.9-0.2,1.3,0.1c0.4,0.3,0.4,0.8,0.4,1.3c0.5-0.2,0.9-0.3,1.3,0
					c0.4,0.3,0.5,0.7,0.5,1.1c0.3,0,0.6,0,0.8-0.1c-0.2-0.8,0.1-1.5,0.8-1.5c0.3,0,0.6,0.1,0.8,0.2c0.4,0.2,0.4,0.6,0.4,1
					c0.4,0,0.8,0,1.1-0.1c-0.2-0.4-0.2-0.8,0.1-1.2c0.3-0.3,0.6-0.4,1-0.3c0.6,0.2,0.7,0.7,0.7,1.2c0.4,0,0.7-0.1,1.1-0.1
					c-0.2-0.5-0.2-0.9,0.3-1.3c0.3-0.3,0.7-0.4,1.1-0.2c0.5,0.3,0.7,0.7,0.6,1.3c0.3-0.1,0.6-0.1,0.8-0.1c0-0.3,0-0.7,0-1.1
					c-0.6,0.2-1,0.2-1.3-0.2c-0.2-0.3-0.3-0.8,0-1.1c0.2-0.3,0.7-0.5,1-0.4c0.6,0.2,0.7,0.7,0.6,1.2c0.4-0.1,0.7-0.1,1.1-0.2
					c-0.3-1,0.3-1.6,1.4-1.6c-0.2-0.4-0.2-0.9,0.2-1.2c0.3-0.4,0.8-0.4,1.3-0.3c-0.3-0.5-0.3-0.9,0-1.3c0.3-0.4,0.7-0.5,1.1-0.5
					c0-0.4,0-0.7,0-1c-0.6,0.2-1,0.1-1.3-0.2c-0.2-0.3-0.3-0.8,0-1.1c0.2-0.3,0.7-0.5,1.1-0.4c0.6,0.2,0.7,0.7,0.7,1.2
					c0.3-0.1,0.6-0.2,0.9-0.2c0-0.3,0-0.5,0-0.8c-0.9,0.2-1.5-0.1-1.6-0.8c-0.1-0.7,0.4-1.2,1.3-1.2c0-0.3-0.1-0.7-0.1-1
					c-0.5,0.2-0.9,0.2-1.3-0.2c-0.3-0.3-0.4-0.8-0.2-1.1c0.3-0.6,0.8-0.7,1.3-0.6c-0.1-0.4-0.1-0.7-0.2-1.1c0,0-0.1,0-0.2,0.1
					c-0.8,0.2-1.5-0.4-1.4-1.2C-517.3,353.5-517.2,353.3-517.1,353.1z M-536.9,369c0-0.3,0-0.6,0-0.9c-0.4,0-0.7,0.1-1.1,0.1
					c0.1,0.3,0.1,0.6,0.2,1C-537.5,369.1-537.2,369-536.9,369z M-521.4,345.7c0-0.3,0-0.7,0-1c-0.3,0-0.7,0.1-1,0.1
					c0.1,0.3,0.1,0.6,0.2,0.9C-522,345.8-521.7,345.8-521.4,345.7z M-541.9,359.7c0,0.2,0.1,0.5,0.1,0.7c0.4,0,0.7,0,1,0
					c0-0.4,0-0.7,0-1C-541.2,359.5-541.5,359.6-541.9,359.7z M-526.6,372.4c0.2,0,0.5-0.1,0.8-0.1c0-0.3-0.1-0.7-0.1-1
					c-0.3,0-0.6,0-0.8,0C-526.7,371.7-526.7,372.1-526.6,372.4z M-518.3,369.9c-0.1-0.3-0.1-0.6-0.2-1c-0.2,0-0.5,0.1-0.8,0.1
					c0,0.3,0,0.7,0,1C-519,370-518.7,370-518.3,369.9z M-534.3,371.8c0.3,0,0.6-0.1,0.8-0.1c0-0.3-0.1-0.7-0.1-1
					c-0.3,0-0.6,0.1-0.9,0.1C-534.4,371.2-534.4,371.5-534.3,371.8z M-532,372.2c-0.3,0-0.6,0-0.8,0c0,0.4,0,0.8,0,1
					c0.3-0.1,0.7-0.1,1-0.2C-531.8,372.8-531.9,372.5-532,372.2z M-518,348.4c0-0.3,0-0.7,0-1c-0.3,0.1-0.7,0.2-1,0.2
					c0,0.3,0.1,0.6,0.1,0.8C-518.6,348.5-518.3,348.4-518,348.4z M-539.5,367c0,0.3,0,0.6,0,0.8c0.4,0,0.7-0.1,1-0.1
					c-0.1-0.3-0.1-0.6-0.2-0.9C-538.9,366.9-539.2,367-539.5,367z M-540,351.1c0.3,0,0.7,0,0.9-0.1c0-0.3-0.1-0.6-0.1-0.9
					c-0.3,0-0.6,0.1-0.9,0.1C-540,350.5-540,350.8-540,351.1z M-516.7,366.5c0.3,0,0.6,0,0.9-0.1c0-0.3-0.1-0.6-0.1-0.9
					c-0.3,0-0.7,0.1-1,0.1C-516.8,366-516.7,366.3-516.7,366.5z M-540.5,363.4c0-0.3-0.1-0.6-0.1-0.9c-0.3,0.1-0.6,0.1-1,0.2
					c0,0.2,0,0.5,0.1,0.7C-541.1,363.4-540.8,363.4-540.5,363.4z M-541.4,356.5c-0.3,0-0.7,0.1-1,0.1c0,0.3,0.1,0.5,0.1,0.8
					c0.3,0,0.7,0,1-0.1C-541.3,357.1-541.3,356.8-541.4,356.5z M-514.9,357.2c0.3-0.1,0.6-0.1,1-0.2c0-0.2-0.1-0.5-0.1-0.7
					c-0.4,0-0.7,0-1,0C-515,356.6-514.9,356.9-514.9,357.2z M-533.1,344.7c0,0.3,0.1,0.6,0.2,0.9c0.3,0,0.5-0.1,0.7-0.1
					c0-0.4,0-0.7,0-1C-532.5,344.6-532.8,344.7-533.1,344.7z M-522.9,371c-0.3,0-0.6,0.1-0.8,0.1c0,0.3,0.1,0.6,0.1,1
					c0.3,0,0.5,0,0.8-0.1C-522.9,371.6-522.9,371.3-522.9,371z M-513.5,360.1c0-0.3-0.1-0.6-0.1-0.8c-0.3,0-0.6,0.1-1,0.1
					c0,0.3,0,0.5,0.1,0.8C-514.1,360.1-513.8,360.1-513.5,360.1z M-514.6,363.9c-0.2,0-0.5,0.1-0.8,0.2c0,0.3,0,0.6,0,0.8
					c0.3,0,0.7,0,0.9-0.1C-514.5,364.6-514.5,364.2-514.6,363.9z M-516.3,348.8c-0.3,0.1-0.7,0.1-1,0.2c0,0.2,0.1,0.5,0.2,0.8
					c0.3,0,0.6-0.1,0.9-0.1C-516.3,349.4-516.3,349.1-516.3,348.8z M-536.1,369.6c0,0.3,0.1,0.6,0.1,0.9c0.3,0,0.6-0.1,0.8-0.1
					c0-0.3-0.1-0.6-0.1-0.9C-535.6,369.5-535.8,369.5-536.1,369.6z M-540.5,352.6c0-0.3,0-0.6-0.1-0.8c-0.3,0-0.7,0-1,0.1
					c0.1,0.3,0.1,0.6,0.2,0.9C-541,352.7-540.7,352.7-540.5,352.6z M-538.7,348.5c0,0.3,0.1,0.6,0.1,0.9c0.3,0,0.6-0.1,0.9-0.1
					c-0.1-0.3-0.1-0.6-0.2-0.9C-538.2,348.5-538.4,348.5-538.7,348.5z M-537.4,346.8c0,0.3,0.1,0.6,0.1,0.9c0.3,0,0.6-0.1,0.8-0.1
					c0-0.3-0.1-0.6-0.1-0.9C-536.9,346.8-537.2,346.8-537.4,346.8z M-541.3,365.7c0,0.3,0,0.7,0,0.9c0.3-0.1,0.6-0.2,1-0.2
					c0-0.2-0.1-0.5-0.1-0.7C-540.7,365.7-541,365.7-541.3,365.7z M-526.9,345c0.3,0,0.5-0.1,0.8-0.1c0-0.3-0.1-0.6-0.1-0.9
					c-0.3,0-0.5,0.1-0.8,0.1C-527,344.3-527,344.6-526.9,345z M-515.2,354.1c0.3,0,0.6-0.1,1-0.1c0-0.2-0.1-0.5-0.1-0.7
					c-0.3,0-0.7,0.1-1,0.1C-515.3,353.6-515.3,353.9-515.2,354.1z M-529,371.7c-0.2,0-0.5,0.1-0.7,0.1c0,0.3,0.1,0.6,0.1,1
					c0.3,0,0.5-0.1,0.7-0.1C-528.9,372.4-529,372-529,371.7z M-517.3,367.3c-0.3,0-0.5,0.1-0.8,0.1c0,0.3,0.1,0.6,0.1,0.8
					c0.3,0,0.6-0.1,0.8-0.1C-517.2,367.9-517.2,367.6-517.3,367.3z M-530,344.4c0,0.3,0.1,0.6,0.1,0.9c0.3,0,0.5-0.1,0.7-0.1
					c0-0.3-0.1-0.6-0.1-0.9C-529.5,344.4-529.8,344.4-530,344.4z M-520.7,346.3c0,0.3,0.1,0.5,0.1,0.8c0.3,0,0.5-0.1,0.8-0.1
					c0-0.3-0.1-0.6-0.1-0.9C-520.1,346.2-520.4,346.3-520.7,346.3z"/>
			</g>
		</g>
	</g>
	<g>
		<g>
			<path class="st2" d="M-500.6,343.5v13.9h5.4v3.4h-9.3v-17.3H-500.6z"/>
			<path class="st2" d="M-478.2,345.6c1.6,1.6,2.7,3.9,2.7,6.5c0,2.3-0.8,4.7-2.7,6.5c-1.6,1.6-3.8,2.5-6.7,2.5
				c-3.2,0-5.4-1.3-6.7-2.5c-1.7-1.6-2.7-3.9-2.7-6.4c0-2.5,1.1-5,2.7-6.5c1.2-1.2,3.3-2.5,6.8-2.5
				C-482.2,343.1-480,344-478.2,345.6z M-488.7,348.3c-0.7,0.7-1.5,2-1.5,3.9c0,1.6,0.5,2.8,1.6,3.9c1.1,1.1,2.4,1.4,3.7,1.4
				c1.8,0,3-0.6,3.8-1.5c0.7-0.6,1.5-1.9,1.5-3.9c0-1.8-0.7-3.1-1.5-3.9c-0.9-0.8-2.2-1.5-3.8-1.5
				C-486.4,346.8-487.8,347.3-488.7,348.3z"/>
			<path class="st2" d="M-464.3,351.4h8.6v0.2c0,2.1-0.7,5.3-2.7,7.3c-1.9,2-4.1,2.4-6.2,2.4c-2.1,0-4.3-0.3-6.3-2.4
				c-1-1-2.5-3.1-2.5-6.6c0-2.8,1-5.1,2.5-6.5c2.1-2.2,4.7-2.5,6.8-2.5c1.4,0,3.2,0.2,4.8,1.3c1.2,0.8,2.2,2,2.8,3.1l-3.6,1.9
				c-0.3-0.7-0.9-1.4-1.5-1.9c-0.8-0.6-1.7-0.8-2.6-0.8c-1.6,0-2.7,0.5-3.6,1.4c-1,1-1.5,2.5-1.5,4.1c0,2,0.7,3.2,1.4,4
				c1,1,2.2,1.3,3.5,1.3c1.7,0,2.6-0.6,3-0.9c0.1-0.1,0.9-0.8,1.2-2h-4.2V351.4z"/>
			<path class="st2" d="M-437.4,345.6c1.6,1.6,2.7,3.9,2.7,6.5c0,2.3-0.8,4.7-2.7,6.5c-1.6,1.6-3.8,2.5-6.7,2.5
				c-3.2,0-5.4-1.3-6.7-2.5c-1.7-1.6-2.7-3.9-2.7-6.4c0-2.5,1.1-5,2.7-6.5c1.2-1.2,3.3-2.5,6.8-2.5
				C-441.4,343.1-439.2,344-437.4,345.6z M-447.9,348.3c-0.7,0.7-1.5,2-1.5,3.9c0,1.6,0.5,2.8,1.6,3.9c1.1,1.1,2.4,1.4,3.7,1.4
				c1.8,0,3-0.6,3.8-1.5c0.7-0.6,1.5-1.9,1.5-3.9c0-1.8-0.7-3.1-1.5-3.9c-0.9-0.8-2.2-1.5-3.8-1.5
				C-445.6,346.8-447,347.3-447.9,348.3z"/>
			<path class="st2" d="M-426.3,346.9v13.9h-4v-13.9h-3.8v-3.4h11.5v3.4H-426.3z"/>
			<path class="st2" d="M-416.4,343.5v17.3h-4v-17.3H-416.4z"/>
			<path class="st2" d="M-406.4,343.5c1.5,0,3.2,0.2,4.5,1.4c1.5,1.3,1.7,3,1.7,4.2c0,2.2-0.8,3.4-1.5,4.1c-1.4,1.4-3.2,1.5-4.4,1.5
				h-2.4v6.1h-4v-17.3H-406.4z M-408.5,351.5h1.4c0.5,0,1.5,0,2.1-0.6c0.4-0.4,0.6-1,0.6-1.7c0-0.7-0.3-1.3-0.6-1.7
				c-0.6-0.6-1.4-0.6-2.2-0.6h-1.3V351.5z"/>
		</g>
	</g>
	<g>
		<path class="st2" d="M-502.9,363.8c0.9,0,1.7,0.1,2.3,0.6c0.7,0.6,0.8,1.4,0.8,1.9c0,1.3-0.8,2.5-2.9,2.5h-0.9v3.9h-1v-9H-502.9z
			 M-503.5,368h0.8c1.2,0,1.9-0.6,1.9-1.6c0-1.4-1.3-1.6-2-1.6h-0.7V368z"/>
		<path class="st2" d="M-497.2,367.2h1v0.6c0.1-0.1,0.5-0.7,1.3-0.7c0.3,0,0.6,0.1,0.9,0.2l-0.5,0.9c-0.2-0.1-0.4-0.2-0.6-0.2
			c-0.4,0-0.6,0.2-0.8,0.4c-0.2,0.2-0.3,0.6-0.3,1.5v3h-1V367.2z"/>
		<path class="st2" d="M-491.4,364.4c0.4,0,0.7,0.3,0.7,0.7s-0.3,0.7-0.7,0.7s-0.7-0.3-0.7-0.7S-491.8,364.4-491.4,364.4z
			 M-490.9,367.2v5.6h-1v-5.6H-490.9z"/>
		<path class="st2" d="M-487.7,367.2h1v0.7c0.2-0.2,0.7-0.8,1.6-0.8c0.7,0,1.3,0.3,1.6,0.8c0.3,0.4,0.3,0.9,0.3,1.5v3.5h-1v-3.5
			c0-0.3,0-0.7-0.3-1c-0.2-0.2-0.5-0.4-0.9-0.4c-0.3,0-0.7,0.1-1,0.4c-0.4,0.4-0.4,1.1-0.4,1.5v2.9h-1V367.2z"/>
		<path class="st2" d="M-478.9,368.1v4.7h-1v-4.7h-0.6v-0.9h0.6v-2h1v2h1v0.9H-478.9z"/>
		<path class="st2" d="M-464,369.6c-0.2,0.3-0.6,0.8-1.2,1.3l1.5,2h-1.2l-1-1.3c-0.8,0.8-1.9,1.4-2.9,1.4c-1.5,0-2.6-1.1-2.6-2.5
			c0-1,0.5-1.6,0.8-1.9c0.5-0.5,1.3-1,1.5-1.1c-0.6-0.8-0.9-1.3-0.9-1.9c0-1,0.7-1.9,2-1.9c1.3,0,1.9,0.9,1.9,1.8
			c0,0.4-0.1,1-0.8,1.6c-0.2,0.2-0.1,0.1-0.7,0.6l1.9,2.4c0.5-0.5,0.8-0.8,1-1.2L-464,369.6z M-468.4,368.3c-0.7,0.4-1,0.7-1.3,0.9
			c-0.3,0.2-0.6,0.6-0.6,1.3c0,0.9,0.7,1.6,1.6,1.6c1,0,2-0.9,2.3-1.2L-468.4,368.3z M-468.2,367l0.6-0.5c0.5-0.4,0.6-0.7,0.6-1
			c0-0.6-0.5-0.9-1-0.9c-0.6,0-1,0.4-1,1c0,0.4,0.2,0.7,0.4,0.9L-468.2,367z"/>
		<path class="st2" d="M-451.7,368.3h3.8v0.2c0,1-0.3,2.1-0.9,2.9c-0.3,0.4-1.3,1.6-3.4,1.6c-2.7,0-4.7-2-4.7-4.7
			c0-2.6,2-4.7,4.7-4.7c0.9,0,1.9,0.2,2.8,0.9c0.4,0.3,0.8,0.7,1,1.1l-0.7,0.7c-0.3-0.4-0.6-0.7-0.9-0.9c-0.4-0.4-1.1-0.8-2.2-0.8
			c-2.2,0-3.7,1.6-3.7,3.7c0,2.5,2,3.7,3.7,3.7c1.2,0,2.3-0.6,2.8-1.5c0.2-0.3,0.3-0.7,0.4-1.3h-2.7V368.3z"/>
		<path class="st2" d="M-445,367.2h1v0.6c0.1-0.1,0.5-0.7,1.3-0.7c0.3,0,0.6,0.1,0.9,0.2l-0.5,0.9c-0.2-0.1-0.4-0.2-0.6-0.2
			c-0.4,0-0.6,0.2-0.8,0.4c-0.2,0.2-0.3,0.6-0.3,1.5v3h-1V367.2z"/>
		<path class="st2" d="M-435.6,367.2h1v5.6h-1v-0.8c-0.3,0.4-0.9,0.9-1.9,0.9c-1.4,0-2.7-1-2.7-3c0-1.9,1.3-2.9,2.7-2.9
			c1.1,0,1.7,0.6,1.9,0.9V367.2z M-439.3,370.1c0,1.2,0.7,2.1,1.8,2.1c1.2,0,1.9-1,1.9-2.1c0-1.5-1-2.1-1.9-2.1
			C-438.4,368-439.3,368.7-439.3,370.1z"/>
		<path class="st2" d="M-430.4,376h-1v-8.8h1v0.8c0.7-0.8,1.5-0.9,1.9-0.9c1.8,0,2.7,1.5,2.7,3c0,1.5-1,2.9-2.7,2.9
			c-0.9,0-1.5-0.4-2-0.9V376z M-426.8,370.1c0-1.4-0.9-2.1-1.8-2.1c-0.9,0-1.9,0.7-1.9,2.1c0,1.2,0.7,2.1,1.9,2.1
			C-427.5,372.2-426.8,371.2-426.8,370.1z"/>
		<path class="st2" d="M-422.9,363h1v4.9c0.2-0.2,0.7-0.8,1.6-0.8c0.7,0,1.3,0.3,1.6,0.8c0.3,0.4,0.3,0.9,0.3,1.5v3.5h-1v-3.5
			c0-0.3,0-0.7-0.3-1c-0.2-0.2-0.5-0.4-0.9-0.4c-0.3,0-0.7,0.1-1,0.4c-0.4,0.4-0.4,1.1-0.4,1.5v2.9h-1V363z"/>
		<path class="st2" d="M-414.7,364.4c0.4,0,0.7,0.3,0.7,0.7s-0.3,0.7-0.7,0.7s-0.7-0.3-0.7-0.7S-415.1,364.4-414.7,364.4z
			 M-414.2,367.2v5.6h-1v-5.6H-414.2z"/>
		<path class="st2" d="M-406.6,368.8c-0.5-0.7-1.3-0.8-1.8-0.8c-1,0-2,0.7-2,2.1s1,2.1,2,2.1c0.6,0,1.3-0.3,1.8-0.9v1.2
			c-0.6,0.4-1.3,0.6-1.8,0.6c-1.7,0-3-1.2-3-2.9c0-1.7,1.3-3,3-3c0.9,0,1.5,0.4,1.7,0.5V368.8z"/>
		<path class="st2" d="M-401.4,368.6c-0.1-0.3-0.4-0.6-0.8-0.6c-0.4,0-0.7,0.2-0.7,0.6c0,0.4,0.3,0.5,0.9,0.8
			c0.8,0.3,1.2,0.6,1.4,0.9c0.2,0.3,0.3,0.6,0.3,0.9c0,1.2-0.9,1.8-1.9,1.8c-0.2,0-1.5,0-2-1.4l0.8-0.4c0.1,0.3,0.4,0.9,1.1,0.9
			c0.6,0,0.9-0.5,0.9-0.9c0-0.5-0.4-0.7-0.9-0.9c-0.7-0.3-1.1-0.5-1.4-0.8c-0.2-0.3-0.3-0.5-0.3-0.8c0-1,0.7-1.6,1.6-1.6
			c0.3,0,1.1,0.1,1.5,1L-401.4,368.6z"/>
	</g>
</g>
</svg>
