<?xml version="1.0" encoding="UTF-8"?>
<svg id="Layer_2" data-name="Layer 2" xmlns="http://www.w3.org/2000/svg" viewBox="0 0 463.25 378.28">
  <defs>
    <style>
      .cls-1 {
        fill: #360d36;
      }

      .cls-2 {
        fill: #fff;
      }

      .cls-3 {
        fill: #d1d1d1;
      }

      .cls-4 {
        fill: #bfbfbf;
      }

      .cls-5 {
        isolation: isolate;
      }

      .cls-6 {
        fill: #e0e0e0;
      }

      .cls-7 {
        fill: none;
        stroke: #360d36;
        stroke-miterlimit: 10;
        stroke-width: 2px;
      }

      .cls-8 {
        fill: #e5e5e3;
      }

      .cls-9 {
        fill: #e8e8e8;
      }

      .cls-10 {
        fill: #2d2d2d;
      }
    </style>
  </defs>
  <g id="Layer_1-2" data-name="Layer 1">
    <line class="cls-7" x1="290.25" y1="168.97" x2="277.75" y2="217.4"/>
    <line class="cls-7" x1="290.09" y1="168.97" x2="302.59" y2="217.4"/>
    <path class="cls-9" d="M396.88,70.83c-6.62,0-12.48,3.21-16.14,8.15-1.25-.42-2.59-.65-3.98-.65-6.97,0-12.62,5.65-12.62,12.62h52.87c0-11.11-9.01-20.12-20.12-20.12Z"/>
    <path class="cls-9" d="M173.4,163.7c6.62,0,12.48,3.21,16.14,8.15,1.25-.41,2.59-.65,3.98-.65,6.97,0,12.62,5.65,12.62,12.62h-52.87c0-11.11,9.01-20.12,20.12-20.12Z"/>
    <path class="cls-9" d="M96.49,4c6.62,0,12.48,3.21,16.14,8.15,1.25-.42,2.59-.65,3.98-.65,6.97,0,12.62,5.65,12.62,12.62h-52.87c0-11.12,9.01-20.12,20.12-20.12Z"/>
    <path class="cls-9" d="M267.29,32.98c-3.36,0-6.42,1.21-8.8,3.22-3.12-4.01-7.98-6.6-13.45-6.6s-10.76,2.82-13.85,7.14c-1.31-.57-2.76-.89-4.29-.89-5.96,0-10.8,4.83-10.8,10.8h0s64.86,0,64.86,0h0c0-7.55-6.12-13.67-13.67-13.67Z"/>
    <path class="cls-9" d="M442.83,173.06c-3.82,0-7.31,1.38-10.01,3.66-3.55-4.56-9.08-7.51-15.3-7.51s-12.24,3.21-15.76,8.12c-1.49-.65-3.14-1.01-4.88-1.01-6.79,0-12.29,5.5-12.29,12.28h0s73.79,0,73.79,0h0c0-8.59-6.96-15.55-15.55-15.55Z"/>
    <line class="cls-7" x1="106.6" y1="131.08" x2="286.75" y2="123.11"/>
    <rect class="cls-2" x="33" y="73.73" width="4.71" height="287.85"/>
    <rect class="cls-2" x="12.29" y="361.58" width="75" height="15.69"/>
    <rect class="cls-2" x="1" y="371.14" width="97" height="6.14"/>
    <rect class="cls-2" x="366.75" y="266.49" width="8.44" height="79.5"/>
    <rect class="cls-7" x="366.75" y="266.49" width="8.44" height="79.5"/>
    <line class="cls-7" x1="375.19" y1="377.28" x2="366.75" y2="377.28"/>
    <line class="cls-7" x1="232.75" y1="377" x2="249.25" y2="377"/>
    <rect class="cls-7" x="286.75" y="117.15" width="11.25" height="5.96"/>
    <line class="cls-7" x1="290.25" y1="123.36" x2="290.25" y2="162.56"/>
    <line class="cls-7" x1="48.47" y1="58.64" x2="295.67" y2="83.28"/>
    <g>
      <path class="cls-7" d="M48.47,70.06h0c-1.76,0-3.21-1.44-3.21-3.21h0c0-1.76,1.44-3.21,3.21-3.21h0c1.77,0,3.21,1.44,3.21,3.21h0c0,1.76-1.44,3.21-3.21,3.21Z"/>
      <path class="cls-7" d="M41.89,73.73v-8.51c0-3.62,2.96-6.58,6.58-6.58h0c3.62,0,6.58,2.96,6.58,6.58v8.51"/>
    </g>
    <g>
      <path class="cls-7" d="M295.67,94.7h0c-1.77,0-3.21-1.44-3.21-3.21h0c0-1.76,1.44-3.21,3.21-3.21h0c1.77,0,3.21,1.44,3.21,3.21h0c0,1.76-1.44,3.21-3.21,3.21Z"/>
      <path class="cls-7" d="M289.08,98.38v-8.51c0-3.62,2.96-6.58,6.58-6.58h0c3.62,0,6.58,2.96,6.58,6.58v8.51"/>
    </g>
    <rect class="cls-7" x="33" y="73.73" width="4.71" height="287.85"/>
    <rect class="cls-2" x="106.36" y="346.17" width="268.83" height="15.42"/>
    <rect class="cls-7" x="106.36" y="346.17" width="268.83" height="15.42"/>
    <rect class="cls-7" x="321.08" y="346.17" width="36.67" height="15.42"/>
    <line class="cls-7" x1="337.1" y1="353.88" x2="341.73" y2="353.88"/>
    <g>
      <path class="cls-7" d="M444.61,319.29l-5.97-32.06c-.74-3.97-4.2-6.84-8.23-6.84h-55.21v81.19h71.71c3.93,0,7.12-3.19,7.12-7.12v-24.86c0-2.67-1.36-5.15-3.61-6.58l-5.82-3.72Z"/>
      <rect class="cls-6" x="375.19" y="280.4" width="8.5" height="81.19"/>
      <path class="cls-8" d="M406.9,287.58h-19.38v28.75c0,1.75,1.42,3.16,3.16,3.16h16.21v-31.91Z"/>
      <path class="cls-3" d="M393.26,287.58h-5.74v28.75c0,1.75,1.42,3.16,3.16,3.16h2.57v-31.91h0Z"/>
      <path class="cls-8" d="M412.28,319.5h32.48l-5.07-26.3c-.63-3.25-3.57-5.61-6.99-5.61h-20.42v31.91Z"/>
      <path class="cls-7" d="M444.61,319.29l-5.97-32.06c-.74-3.97-4.2-6.84-8.23-6.84h-55.21v81.19h71.71c3.93,0,7.12-3.19,7.12-7.12v-24.86c0-2.67-1.36-5.15-3.61-6.58l-5.82-3.72Z"/>
      <rect class="cls-7" x="375.19" y="352.9" width="22.83" height="8.69"/>
      <rect class="cls-3" x="412.28" y="287.58" width="6.5" height="31.91"/>
      <path class="cls-7" d="M412.28,319.5h32.48l-5.07-26.3c-.63-3.25-3.57-5.61-6.99-5.61h-20.42v31.91Z"/>
      <path class="cls-7" d="M406.9,287.58h-19.38v28.75c0,1.75,1.42,3.16,3.16,3.16h16.21v-31.91Z"/>
      <path class="cls-7" d="M453.03,361.58h-22.62v-8.69h27v4.31c0,2.42-1.96,4.38-4.38,4.38Z"/>
      <g>
        <path class="cls-4" d="M414.68,341.17c-11.26,0-20.42,9.16-20.42,20.42h40.83c0-11.26-9.16-20.42-20.42-20.42Z"/>
        <g>
          <path class="cls-7" d="M414.68,341.17c-11.26,0-20.42,9.16-20.42,20.42h40.83c0-11.26-9.16-20.42-20.42-20.42Z"/>
          <circle class="cls-7" cx="414.68" cy="361.58" r="15.42"/>
          <path class="cls-7" d="M414.68,371.14c-5.27,0-9.55-4.29-9.55-9.55s4.29-9.55,9.55-9.55,9.55,4.29,9.55,9.55-4.28,9.55-9.55,9.55Z"/>
          <path class="cls-4" d="M414.68,364.72c-1.73,0-3.13-1.4-3.13-3.13s1.4-3.13,3.13-3.13,3.13,1.4,3.13,3.13-1.41,3.13-3.13,3.13Z"/>
          <path class="cls-7" d="M414.68,364.72c-1.73,0-3.13-1.4-3.13-3.13s1.4-3.13,3.13-3.13,3.13,1.4,3.13,3.13-1.41,3.13-3.13,3.13Z"/>
        </g>
      </g>
      <g>
        <line class="cls-7" x1="378.36" y1="292.58" x2="383.69" y2="292.58"/>
        <line class="cls-7" x1="378.36" y1="296.42" x2="383.69" y2="296.42"/>
        <line class="cls-7" x1="378.36" y1="300.25" x2="383.69" y2="300.25"/>
        <line class="cls-7" x1="378.36" y1="304.08" x2="383.69" y2="304.08"/>
        <line class="cls-7" x1="378.36" y1="307.92" x2="383.69" y2="307.92"/>
        <line class="cls-7" x1="378.36" y1="311.75" x2="383.69" y2="311.75"/>
        <line class="cls-7" x1="378.36" y1="315.58" x2="383.69" y2="315.58"/>
      </g>
      <path class="cls-7" d="M454.03,343.08c0,2.02-1.64,3.67-3.67,3.67s-3.67-1.64-3.67-3.67,1.64-3.67,3.67-3.67,3.67,1.64,3.67,3.67Z"/>
      <line class="cls-7" x1="412.28" y1="325.92" x2="416.78" y2="325.92"/>
    </g>
    <path class="cls-7" d="M104.11,361.58h22.62v-8.69h-27v4.31c0,2.42,1.96,4.38,4.38,4.38Z"/>
    <path class="cls-4" d="M178.49,341.17h-40.83c-11.26,0-20.42,9.16-20.42,20.42h81.67c0-11.26-9.16-20.42-20.42-20.42Z"/>
    <path class="cls-7" d="M178.49,341.17h-40.83c-11.26,0-20.42,9.16-20.42,20.42h81.67c0-11.26-9.16-20.42-20.42-20.42Z"/>
    <path class="cls-1" d="M157.66,274.96c0,13.12-7.2,19.81-20.71,19.81s-20.71-6.69-20.71-19.81v-34.22h12.09v30.68c0,8.88,2.7,11.45,8.62,11.45s8.62-2.57,8.62-11.45v-30.68h12.09v34.22Z"/>
    <path class="cls-1" d="M180.03,293.8h-12.09v-53.06h12.09l21.1,32.93h.13v-32.93h12.09v53.06h-12.09l-21.1-32.93h-.13v32.93h0Z"/>
    <path class="cls-1" d="M239.64,240.74c14.54,0,26.76,11.06,26.76,26.5s-12.15,26.56-26.76,26.56h-15.37v-53.06h15.37Zm-1.41,42.26c8.94,0,15.05-6.82,15.11-15.69,0-8.88-6.11-15.76-15.11-15.76h-1.87v31.45h1.87Z"/>
    <path class="cls-1" d="M305.3,225.85h-18.27v10.55h17.49v10.61h-17.49v10.68h18.27v10.61h-30.36v-53.06h30.36v10.61Z"/>
    <path class="cls-1" d="M334.43,240.74c9.84,0,17.3,5.34,17.3,15.76,0,7.98-4.37,13.31-10.87,15.37l18.27,21.93h-15.37l-16.21-20.97v20.97h-12.09v-53.06h18.97Zm-5.47,23.54c4.57,0,10.03-.32,10.03-6.95s-5.47-6.95-10.03-6.95h-1.42v13.89h1.42Z"/>
    <g class="cls-5">
      <path class="cls-1" d="M131.76,323.27l2.58,.65c-.54,2.12-1.51,3.74-2.92,4.85s-3.12,1.67-5.16,1.67-3.81-.43-5.13-1.28c-1.32-.86-2.32-2.1-3.01-3.72-.69-1.62-1.03-3.37-1.03-5.23,0-2.03,.39-3.8,1.16-5.31s1.88-2.66,3.31-3.45c1.43-.79,3.01-1.18,4.73-1.18,1.95,0,3.59,.5,4.92,1.49,1.33,.99,2.26,2.39,2.78,4.19l-2.54,.6c-.45-1.42-1.11-2.45-1.97-3.1-.86-.65-1.94-.97-3.25-.97-1.5,0-2.75,.36-3.76,1.08-1.01,.72-1.71,1.68-2.12,2.89-.41,1.21-.61,2.46-.61,3.75,0,1.66,.24,3.11,.73,4.34s1.24,2.16,2.26,2.77c1.02,.61,2.12,.92,3.31,.92,1.45,0,2.67-.42,3.67-1.25,1-.83,1.68-2.07,2.04-3.71Z"/>
      <path class="cls-1" d="M137.72,320.61c0-3.24,.87-5.77,2.61-7.6,1.74-1.83,3.98-2.75,6.73-2.75,1.8,0,3.42,.43,4.87,1.29,1.45,.86,2.55,2.06,3.31,3.6s1.14,3.28,1.14,5.23-.4,3.75-1.2,5.31c-.8,1.56-1.93,2.74-3.39,3.55s-3.04,1.2-4.74,1.2c-1.84,0-3.48-.44-4.92-1.33-1.45-.89-2.54-2.1-3.29-3.63s-1.12-3.16-1.12-4.87Zm2.66,.04c0,2.35,.63,4.2,1.9,5.55,1.26,1.35,2.85,2.03,4.76,2.03s3.54-.68,4.8-2.05c1.25-1.37,1.88-3.3,1.88-5.81,0-1.59-.27-2.97-.8-4.16-.54-1.18-1.32-2.1-2.35-2.75-1.03-.65-2.19-.98-3.48-.98-1.83,0-3.4,.63-4.72,1.88-1.32,1.25-1.98,3.35-1.98,6.29Z"/>
      <path class="cls-1" d="M160.65,330.11v-19.5h2.65l10.24,15.31v-15.31h2.47v19.5h-2.65l-10.24-15.33v15.33h-2.47Z"/>
      <path class="cls-1" d="M180.45,323.84l2.43-.21c.12,.98,.38,1.78,.8,2.4,.42,.62,1.08,1.13,1.96,1.52,.89,.39,1.88,.58,2.99,.58,.98,0,1.85-.15,2.61-.44,.75-.29,1.31-.69,1.68-1.2s.55-1.07,.55-1.67-.18-1.15-.53-1.6c-.35-.46-.94-.84-1.76-1.15-.52-.2-1.68-.52-3.47-.95-1.79-.43-3.05-.84-3.76-1.22-.93-.49-1.63-1.09-2.08-1.82-.46-.72-.69-1.53-.69-2.43,0-.98,.28-1.91,.84-2.76,.56-.86,1.37-1.51,2.45-1.95s2.27-.67,3.58-.67c1.45,0,2.72,.23,3.82,.7,1.1,.47,1.95,1.15,2.55,2.06,.59,.9,.91,1.93,.96,3.07l-2.47,.19c-.13-1.23-.58-2.16-1.35-2.79s-1.9-.95-3.4-.95-2.7,.29-3.41,.86c-.71,.57-1.07,1.26-1.07,2.07,0,.7,.25,1.28,.76,1.73,.5,.45,1.79,.92,3.89,1.39s3.54,.89,4.32,1.24c1.13,.52,1.97,1.19,2.51,1.99s.81,1.73,.81,2.77-.3,2.02-.89,2.93c-.59,.92-1.45,1.63-2.56,2.14-1.11,.51-2.37,.77-3.76,.77-1.77,0-3.24-.26-4.44-.77-1.19-.51-2.13-1.29-2.81-2.32s-1.04-2.2-1.07-3.51Z"/>
      <path class="cls-1" d="M205.45,330.11v-17.2h-6.43v-2.3h15.46v2.3h-6.45v17.2h-2.58Z"/>
      <path class="cls-1" d="M218.15,330.11v-19.5h8.65c1.74,0,3.06,.18,3.96,.53,.9,.35,1.63,.97,2.17,1.86s.81,1.87,.81,2.94c0,1.38-.45,2.55-1.34,3.5-.9,.95-2.28,1.55-4.15,1.81,.68,.33,1.2,.65,1.56,.97,.75,.69,1.47,1.56,2.14,2.59l3.39,5.31h-3.25l-2.58-4.06c-.75-1.17-1.38-2.07-1.86-2.69-.49-.62-.92-1.06-1.31-1.3s-.78-.42-1.18-.52c-.29-.06-.77-.09-1.44-.09h-2.99v8.66h-2.58Zm2.58-10.9h5.55c1.18,0,2.1-.12,2.77-.37,.67-.24,1.17-.63,1.52-1.17,.35-.54,.52-1.12,.52-1.75,0-.92-.33-1.68-1-2.28-.67-.59-1.73-.89-3.17-.89h-6.17v6.45Z"/>
      <path class="cls-1" d="M251.57,310.61h2.58v11.27c0,1.96-.22,3.52-.67,4.67s-1.24,2.09-2.4,2.81c-1.16,.72-2.68,1.08-4.56,1.08s-3.32-.32-4.48-.95c-1.16-.63-1.99-1.54-2.49-2.73-.5-1.19-.74-2.82-.74-4.89v-11.27h2.58v11.26c0,1.69,.16,2.94,.47,3.75,.31,.8,.86,1.42,1.62,1.86,.77,.43,1.71,.65,2.81,.65,1.9,0,3.25-.43,4.06-1.29,.81-.86,1.21-2.51,1.21-4.96v-11.26Z"/>
      <path class="cls-1" d="M273.34,323.27l2.58,.65c-.54,2.12-1.51,3.74-2.92,4.85-1.41,1.11-3.12,1.67-5.16,1.67s-3.81-.43-5.13-1.28c-1.32-.86-2.32-2.1-3.01-3.72-.69-1.62-1.03-3.37-1.03-5.23,0-2.03,.39-3.8,1.16-5.31,.78-1.51,1.88-2.66,3.31-3.45,1.43-.79,3.01-1.18,4.73-1.18,1.95,0,3.59,.5,4.92,1.49,1.33,.99,2.26,2.39,2.78,4.19l-2.54,.6c-.45-1.42-1.11-2.45-1.97-3.1-.86-.65-1.94-.97-3.25-.97-1.5,0-2.75,.36-3.76,1.08-1.01,.72-1.71,1.68-2.12,2.89s-.61,2.46-.61,3.75c0,1.66,.24,3.11,.73,4.34s1.24,2.16,2.25,2.77,2.12,.92,3.31,.92c1.45,0,2.67-.42,3.67-1.25,1-.83,1.68-2.07,2.04-3.71Z"/>
      <path class="cls-1" d="M285.04,330.11v-17.2h-6.43v-2.3h15.46v2.3h-6.45v17.2h-2.58Z"/>
      <path class="cls-1" d="M298.15,330.11v-19.5h2.58v19.5h-2.58Z"/>
      <path class="cls-1" d="M305.47,320.61c0-3.24,.87-5.77,2.61-7.6,1.74-1.83,3.98-2.75,6.73-2.75,1.8,0,3.42,.43,4.87,1.29,1.45,.86,2.55,2.06,3.31,3.6,.76,1.54,1.14,3.28,1.14,5.23s-.4,3.75-1.2,5.31c-.8,1.56-1.93,2.74-3.39,3.55-1.46,.8-3.04,1.2-4.74,1.2-1.84,0-3.48-.44-4.92-1.33-1.45-.89-2.54-2.1-3.29-3.63s-1.12-3.16-1.12-4.87Zm2.66,.04c0,2.35,.63,4.2,1.9,5.55s2.85,2.03,4.76,2.03,3.54-.68,4.8-2.05c1.25-1.37,1.88-3.3,1.88-5.81,0-1.59-.27-2.97-.8-4.16-.54-1.18-1.32-2.1-2.36-2.75-1.03-.65-2.19-.98-3.48-.98-1.83,0-3.4,.63-4.72,1.88-1.32,1.25-1.98,3.35-1.98,6.29Z"/>
      <path class="cls-1" d="M328.4,330.11v-19.5h2.65l10.24,15.31v-15.31h2.47v19.5h-2.65l-10.24-15.33v15.33h-2.47Z"/>
    </g>
    <circle class="cls-7" cx="137.66" cy="361.58" r="15.42"/>
    <path class="cls-7" d="M137.66,371.14c-5.27,0-9.55-4.29-9.55-9.55s4.29-9.55,9.55-9.55,9.55,4.29,9.55,9.55-4.29,9.55-9.55,9.55Z"/>
    <path class="cls-4" d="M137.66,364.72c-1.73,0-3.13-1.4-3.13-3.13s1.4-3.13,3.13-3.13,3.13,1.4,3.13,3.13-1.41,3.13-3.13,3.13Z"/>
    <path class="cls-7" d="M137.66,364.72c-1.73,0-3.13-1.4-3.13-3.13s1.4-3.13,3.13-3.13,3.13,1.4,3.13,3.13-1.41,3.13-3.13,3.13Z"/>
    <circle class="cls-7" cx="178.49" cy="361.58" r="15.42"/>
    <path class="cls-7" d="M178.49,371.14c-5.27,0-9.55-4.29-9.55-9.55s4.29-9.55,9.55-9.55,9.55,4.29,9.55,9.55-4.28,9.55-9.55,9.55Z"/>
    <path class="cls-4" d="M178.49,364.72c-1.73,0-3.13-1.4-3.13-3.13s1.4-3.13,3.13-3.13,3.13,1.4,3.13,3.13-1.41,3.13-3.13,3.13Z"/>
    <path class="cls-7" d="M178.49,364.72c-1.73,0-3.13-1.4-3.13-3.13s1.4-3.13,3.13-3.13,3.13,1.4,3.13,3.13-1.41,3.13-3.13,3.13Z"/>
    <rect class="cls-7" x="12.29" y="361.58" width="75" height="15.69"/>
    <rect class="cls-7" x="37.71" y="166.23" width="24.17" height="195.35"/>
    <rect class="cls-7" x="61.87" y="98.38" width="229.88" height="18.77"/>
    <rect class="cls-7" x="37.71" y="73.73" width="24.17" height="43.41"/>
    <rect class="cls-7" x="1" y="371.14" width="97" height="6.14"/>
    <line class="cls-7" x1="115.74" y1="377.28" x2="217.75" y2="377.28"/>
    <line class="cls-7" x1="387.53" y1="377.28" x2="463.25" y2="377.28"/>
    <path class="cls-7" d="M23.25,121.56v40.26c0,2.44,1.98,4.42,4.42,4.42h47.85c7.29,0,14.01-4.06,17.62-10.64l21.11-38.45H27.67c-2.44,0-4.42,1.98-4.42,4.42Z"/>
    <polygon class="cls-8" points="64.74 124.23 64.74 153.58 94.25 153.58 110.36 124.23 64.74 124.23"/>
    <rect class="cls-3" x="64.74" y="124.23" width="7.59" height="29.35"/>
    <polygon class="cls-7" points="64.74 124.23 64.74 153.58 94.25 153.58 110.36 124.23 64.74 124.23"/>
    <g>
      <line class="cls-7" x1="37.55" y1="339.88" x2="61.71" y2="361.58"/>
      <line class="cls-7" x1="61.71" y1="339.88" x2="37.55" y2="361.58"/>
    </g>
    <g>
      <line class="cls-7" x1="37.55" y1="318.17" x2="61.71" y2="339.88"/>
      <line class="cls-7" x1="61.71" y1="318.17" x2="37.55" y2="339.88"/>
    </g>
    <g>
      <line class="cls-7" x1="37.55" y1="296.47" x2="61.71" y2="318.17"/>
      <line class="cls-7" x1="61.71" y1="296.47" x2="37.55" y2="318.17"/>
    </g>
    <g>
      <line class="cls-7" x1="37.55" y1="274.76" x2="61.71" y2="296.47"/>
      <line class="cls-7" x1="61.71" y1="274.76" x2="37.55" y2="296.47"/>
    </g>
    <g>
      <line class="cls-7" x1="37.55" y1="253.06" x2="61.71" y2="274.76"/>
      <line class="cls-7" x1="61.71" y1="253.06" x2="37.55" y2="274.76"/>
    </g>
    <g>
      <line class="cls-7" x1="37.55" y1="231.35" x2="61.71" y2="253.06"/>
      <line class="cls-7" x1="61.71" y1="231.35" x2="37.55" y2="253.06"/>
    </g>
    <path class="cls-8" d="M57,153.58h-16.71c-2.73,0-4.94-2.21-4.94-4.93v-19.48c0-2.73,2.21-4.93,4.94-4.93h16.71v29.35Z"/>
    <g>
      <line class="cls-7" x1="37.55" y1="209.65" x2="61.71" y2="231.35"/>
      <line class="cls-7" x1="61.71" y1="209.65" x2="37.55" y2="231.35"/>
    </g>
    <g>
      <line class="cls-7" x1="37.55" y1="187.94" x2="61.71" y2="209.65"/>
      <line class="cls-7" x1="61.71" y1="187.94" x2="37.55" y2="209.65"/>
    </g>
    <g>
      <line class="cls-7" x1="37.55" y1="166.23" x2="61.71" y2="187.94"/>
      <line class="cls-7" x1="61.71" y1="166.23" x2="37.55" y2="187.94"/>
    </g>
    <g>
      <line class="cls-7" x1="37.55" y1="95.44" x2="61.71" y2="117.15"/>
      <line class="cls-7" x1="61.71" y1="95.44" x2="37.55" y2="117.15"/>
    </g>
    <g>
      <line class="cls-7" x1="61.87" y1="98.38" x2="82.77" y2="117.15"/>
      <line class="cls-7" x1="82.77" y1="98.38" x2="61.87" y2="117.15"/>
    </g>
    <g>
      <line class="cls-7" x1="82.77" y1="98.38" x2="103.67" y2="117.15"/>
      <line class="cls-7" x1="103.67" y1="98.38" x2="82.77" y2="117.15"/>
    </g>
    <g>
      <line class="cls-7" x1="103.67" y1="98.38" x2="124.57" y2="117.15"/>
      <line class="cls-7" x1="124.57" y1="98.38" x2="103.67" y2="117.15"/>
    </g>
    <g>
      <line class="cls-7" x1="124.57" y1="98.38" x2="145.46" y2="117.15"/>
      <line class="cls-7" x1="145.46" y1="98.38" x2="124.57" y2="117.15"/>
    </g>
    <g>
      <line class="cls-7" x1="145.46" y1="98.38" x2="166.36" y2="117.15"/>
      <line class="cls-7" x1="166.36" y1="98.38" x2="145.46" y2="117.15"/>
    </g>
    <g>
      <line class="cls-7" x1="166.36" y1="98.38" x2="187.26" y2="117.15"/>
      <line class="cls-7" x1="187.26" y1="98.38" x2="166.36" y2="117.15"/>
    </g>
    <g>
      <line class="cls-7" x1="187.26" y1="98.38" x2="208.16" y2="117.15"/>
      <line class="cls-7" x1="208.16" y1="98.38" x2="187.26" y2="117.15"/>
    </g>
    <path class="cls-3" d="M40.29,124.23c-2.73,0-4.94,2.21-4.94,4.93v19.48c0,2.73,2.21,4.93,4.94,4.93h2.65v-29.35h-2.65Z"/>
    <g>
      <line class="cls-7" x1="208.16" y1="98.38" x2="229.06" y2="117.15"/>
      <line class="cls-7" x1="229.06" y1="98.38" x2="208.16" y2="117.15"/>
    </g>
    <g>
      <line class="cls-7" x1="229.06" y1="98.38" x2="249.95" y2="117.15"/>
      <line class="cls-7" x1="249.95" y1="98.38" x2="229.06" y2="117.15"/>
    </g>
    <g>
      <line class="cls-7" x1="249.95" y1="98.38" x2="270.85" y2="117.15"/>
      <line class="cls-7" x1="270.85" y1="98.38" x2="249.95" y2="117.15"/>
    </g>
    <g>
      <line class="cls-7" x1="270.85" y1="98.38" x2="291.75" y2="117.15"/>
      <line class="cls-7" x1="291.75" y1="98.38" x2="270.85" y2="117.15"/>
    </g>
    <g>
      <path class="cls-2" d="M302.31,117.15h-21.01v-18.77h31.86v7.93c0,5.99-4.85,10.84-10.84,10.84Z"/>
      <rect class="cls-6" x="281.3" y="98.38" width="7.16" height="18.77"/>
    </g>
    <g>
      <line class="cls-7" x1="37.55" y1="73.73" x2="61.71" y2="95.44"/>
      <line class="cls-7" x1="37.55" y1="95.44" x2="61.71" y2="73.73"/>
    </g>
    <rect class="cls-7" x="37.71" y="249.66" width="24.17" height="6.58"/>
    <path class="cls-7" d="M302.31,117.15h-21.01v-18.77h31.86v7.93c0,5.99-4.85,10.84-10.84,10.84Z"/>
    <path class="cls-7" d="M57,153.58h-16.71c-2.73,0-4.94-2.21-4.94-4.93v-19.48c0-2.73,2.21-4.93,4.94-4.93h16.71v29.35Z"/>
    <path class="cls-7" d="M290.25,168.97h0c-1.77,0-3.21-1.44-3.21-3.21h0c0-1.76,1.44-3.21,3.21-3.21h0c1.77,0,3.21,1.44,3.21,3.21h0c0,1.76-1.44,3.21-3.21,3.21Z"/>
    <g>
      <path class="cls-10" d="M285.34,101.08c-.72,0-1.32,.59-1.32,1.32s.59,1.32,1.32,1.32,1.32-.59,1.32-1.32-.59-1.32-1.32-1.32Z"/>
      <path class="cls-10" d="M306.18,101.08c-.72,0-1.32,.59-1.32,1.32s.59,1.32,1.32,1.32,1.32-.59,1.32-1.32-.59-1.32-1.32-1.32Z"/>
    </g>
    <g>
      <path class="cls-10" d="M285.34,110.21c-.72,0-1.32,.59-1.32,1.32s.59,1.32,1.32,1.32,1.32-.59,1.32-1.32-.59-1.32-1.32-1.32Z"/>
      <path class="cls-10" d="M306.18,110.21c-.72,0-1.32,.59-1.32,1.32s.59,1.32,1.32,1.32,1.32-.59,1.32-1.32-.59-1.32-1.32-1.32Z"/>
    </g>
    <path class="cls-7" d="M423.98,85.67h-10.74c0-11.11-9.01-20.12-20.12-20.12-6.62,0-12.48,3.21-16.14,8.15-1.25-.42-2.59-.65-3.98-.65-6.97,0-12.62,5.65-12.62,12.62h-10.96"/>
    <path class="cls-7" d="M140.81,179.84h9.4c0-11.11,7.88-20.12,17.6-20.12,5.79,0,10.91,3.21,14.12,8.15,1.1-.42,2.26-.65,3.48-.65,6.1,0,11.04,5.65,11.04,12.62h22.16"/>
    <path class="cls-7" d="M64.74,21.12h9.4c0-11.11,7.88-20.12,17.6-20.12,5.79,0,10.91,3.21,14.12,8.15,1.1-.42,2.26-.65,3.48-.65,6.1,0,11.04,5.65,11.04,12.62"/>
    <path class="cls-7" d="M208.75,43.02h0c0-5.97,4.84-10.8,10.8-10.8,1.52,0,2.97,.32,4.29,.89,3.09-4.32,8.14-7.14,13.85-7.14s10.33,2.59,13.45,6.6c2.38-2.01,5.45-3.22,8.8-3.22,7.55,0,13.67,6.12,13.67,13.67h0s6.35,0,6.35,0"/>
    <path class="cls-7" d="M462.16,184.94h-9.03c0-9-7.3-16.29-16.29-16.29-4,0-7.66,1.45-10.49,3.84-3.72-4.78-9.51-7.86-16.03-7.86s-12.83,3.36-16.51,8.51c-1.57-.68-3.29-1.06-5.11-1.06-7.11,0-12.87,5.76-12.87,12.87h0s-19.75,0-19.75,0"/>
  </g>
</svg>